Coordinates
version=1
nRows=43
nColumns=12
inDegrees=yes

Units are S.I. units (second, meters, Newtons, ...)
Angles are in degrees

endheader
time	SC_y	SC_z	SC_x	AC_y	AC_z	AC_x	GH_y	GH_z	GH_yy	EL_x	PS_y
       0.0              -45.95         -2.832          42.43          66.24          6.619        -0.6717          60.55          83.64         -18.92          37.09          99.45
   0.04881              -45.95          -2.83          42.43          66.24          6.619        -0.6732          60.52          83.63         -18.93          37.09          99.44
   0.09762              -45.95         -2.828          42.43          66.24          6.619        -0.6747          60.49          83.61         -18.93          37.08          99.43
    0.1464              -45.95         -2.826          42.43          66.24          6.619        -0.6764          60.45          83.59         -18.94          37.08          99.42
    0.1952              -45.95         -2.824          42.42          66.24          6.619        -0.6781          60.41          83.58         -18.94          37.08          99.41
    0.2441              -45.95         -2.821          42.42          66.24          6.619          -0.68          60.37          83.56         -18.95          37.08           99.4
    0.2929              -45.94         -2.818          42.42          66.24          6.619         -0.682          60.33          83.54         -18.95          37.08          99.39
    0.3417              -45.94         -2.816          42.42          66.24          6.619        -0.6842          60.28          83.52         -18.96          37.07          99.38
    0.3905              -45.94         -2.812          42.41          66.24          6.619        -0.6865          60.23          83.49         -18.97          37.07          99.37
    0.4393              -45.94         -2.809          42.41          66.24          6.619         -0.689          60.18          83.47         -18.97          37.07          99.36
    0.4881              -45.93         -2.806          42.41          66.24          6.619        -0.6916          60.12          83.44         -18.98          37.06          99.34
    0.5369              -45.93         -2.802           42.4          66.24          6.619        -0.6945          60.06          83.42         -18.99          37.06          99.33
    0.5857              -45.93         -2.798           42.4          66.24          6.619        -0.6976          59.99          83.39          -19.0          37.06          99.31
    0.6345              -45.93         -2.793          42.39          66.24           6.62        -0.7009          59.92          83.35         -19.01          37.05          99.29
    0.6834              -45.92         -2.788          42.39          66.23           6.62        -0.7045          59.84          83.32         -19.02          37.05          99.28
    0.7322              -45.92         -2.783          42.38          66.23           6.62        -0.7084          59.75          83.28         -19.03          37.04          99.26
     0.781              -45.91         -2.777          42.38          66.23           6.62        -0.7126          59.66          83.24         -19.04          37.04          99.23
    0.8298              -45.91         -2.771          42.37          66.23           6.62        -0.7173          59.56          83.19         -19.06          37.03          99.21
    0.8786               -45.9         -2.764          42.36          66.23           6.62        -0.7223          59.45          83.14         -19.07          37.03          99.18
    0.9274               -45.9         -2.757          42.36          66.23          6.621        -0.7278          59.33          83.09         -19.09          37.02          99.16
    0.9762              -45.89         -2.748          42.35          66.23          6.621        -0.7339           59.2          83.03         -19.11          37.01          99.13
     1.025              -45.89         -2.739          42.34          66.23          6.621        -0.7406          59.05          82.96         -19.13           37.0          99.09
     1.074              -45.88         -2.729          42.33          66.23          6.621        -0.7479          58.89          82.89         -19.15           37.0          99.05
     1.123              -45.87         -2.718          42.32          66.22          6.622        -0.7561          58.71          82.81         -19.17          36.99          99.01
     1.171              -45.86         -2.706          42.31          66.22          6.622        -0.7652          58.52          82.72          -19.2          36.97          98.96
      1.22              -45.85         -2.692          42.29          66.22          6.622        -0.7753           58.3          82.62         -19.23          36.96          98.91
     1.269              -45.84         -2.677          42.28          66.22          6.623        -0.7867          58.05          82.51         -19.26          36.95          98.85
     1.318              -45.83          -2.66          42.26          66.22          6.623        -0.7995          57.77          82.38          -19.3          36.93          98.79
     1.367              -45.81          -2.64          42.24          66.21          6.623        -0.8139          57.46          82.24         -19.34          36.91          98.71
     1.416               -45.8         -2.618          42.22          66.21          6.624        -0.8303           57.1          82.08         -19.39          36.89          98.63
     1.464              -45.78         -2.593          42.19          66.21          6.625         -0.849          56.69           81.9         -19.45          36.87          98.53
     1.513              -45.76         -2.564          42.16           66.2          6.625        -0.8705          56.23          81.69         -19.51          36.84          98.42
     1.562              -45.73          -2.53          42.13           66.2          6.626        -0.8952          55.69          81.44         -19.58          36.81           98.3
     1.611              -45.71         -2.492          42.09          66.19          6.627         -0.924          55.06          81.16         -19.67          36.78          98.15
      1.66              -45.67         -2.446          42.04          66.18          6.628        -0.9577          54.33          80.83         -19.77          36.74          97.97
     1.708              -45.63         -2.392          41.99          66.18           6.63        -0.9975          53.46          80.44         -19.89          36.69          97.77
     1.757              -45.59         -2.329          41.92          66.17          6.631         -1.045          52.44          79.97         -20.03          36.63          97.53
     1.806              -45.53         -2.252          41.85          66.15          6.633         -1.101           51.2          79.42         -20.19          36.56          97.24
     1.855              -45.46          -2.16          41.75          66.14          6.636          -1.17          49.71          78.74          -20.4          36.48          96.88
     1.904              -45.38         -2.047          41.64          66.12          6.639         -1.253          47.89          77.92         -20.65          36.37          96.45
     1.952              -45.28         -1.907           41.5           66.1          6.642         -1.357          45.65          76.91         -20.95          36.25          95.92
     2.001              -45.15         -1.733          41.32          66.08          6.646         -1.485          42.85          75.64         -21.33          36.09          95.26
      2.05              -44.99         -1.514           41.1          66.04          6.652         -1.647          39.32          74.05         -21.81          35.89          94.43
